<?xml version="1.0" encoding="utf-8"?>
<!-- Generator: Adobe Illustrator 16.0.0, SVG Export Plug-In . SVG Version: 6.00 Build 0)  -->
<!DOCTYPE svg PUBLIC "-//W3C//DTD SVG 1.1//EN" "http://www.w3.org/Graphics/SVG/1.1/DTD/svg11.dtd">
<svg version="1.1" id="Layer_2" xmlns="http://www.w3.org/2000/svg" xmlns:xlink="http://www.w3.org/1999/xlink" x="0px" y="0px"
	 width="173px" height="82px" viewBox="0 0 173 82" enable-background="new 0 0 173 82" xml:space="preserve">
<path fill="#FFC600" d="M163.623,0.766c-4.662,0-8.455,3.793-8.455,8.455c0,1.593,0.451,3.079,1.221,4.352l-36.08,35.745
	c-1.287-0.794-2.799-1.261-4.42-1.261c-2.969,0-5.581,1.542-7.09,3.864L73.125,39.483c0.026-0.27,0.042-0.541,0.042-0.816
	c0-4.662-3.793-8.455-8.455-8.455s-8.455,3.793-8.455,8.455c0,0.91,0.148,1.785,0.416,2.607L15.315,66.771
	c-1.528-1.51-3.626-2.445-5.938-2.445c-4.662,0-8.455,3.793-8.455,8.455c0,4.661,3.793,8.454,8.455,8.454s8.455-3.793,8.455-8.454
	c0-0.91-0.148-1.785-0.416-2.607l41.357-25.496c1.528,1.51,3.626,2.445,5.938,2.445c2.97,0,5.581-1.542,7.09-3.864l35.673,12.438
	c-0.025,0.269-0.041,0.541-0.041,0.816c0,4.661,3.793,8.454,8.455,8.454s8.455-3.793,8.455-8.454c0-1.593-0.451-3.079-1.219-4.353
	l36.079-35.745c1.288,0.794,2.798,1.261,4.419,1.261c4.662,0,8.455-3.793,8.455-8.454C172.078,4.559,168.285,0.766,163.623,0.766z
	 M9.377,77.234c-2.457,0-4.455-1.998-4.455-4.454s1.998-4.455,4.455-4.455c2.456,0,4.455,1.999,4.455,4.455
	S11.833,77.234,9.377,77.234z M64.712,43.122c-2.457,0-4.455-1.999-4.455-4.455s1.998-4.455,4.455-4.455
	c2.456,0,4.455,1.999,4.455,4.455S67.168,43.122,64.712,43.122z M115.889,60.966c-2.457,0-4.455-1.998-4.455-4.454
	s1.998-4.455,4.455-4.455s4.455,1.999,4.455,4.455S118.346,60.966,115.889,60.966z M163.623,13.675
	c-2.456,0-4.455-1.998-4.455-4.454s1.999-4.455,4.455-4.455c2.457,0,4.455,1.999,4.455,4.455S166.08,13.675,163.623,13.675z"/>
</svg>
